<svg id="gradients" xmlns="http://www.w3.org/2000/svg" xmlns:xlink="http://www.w3.org/1999/xlink" viewBox="0 0 64 64"><defs><linearGradient id="linear-gradient" x1="0.375" y1="34.5" x2="64.843" y2="34.5" gradientUnits="userSpaceOnUse"><stop offset="0" stop-color="#010926" id="id_105"></stop><stop offset="1" stop-color="#f20e0e" id="id_106"></stop></linearGradient></defs><path d="M61.763,52.647a1,1,0,0,0,.223-.811l-5-30A1,1,0,0,0,56,21H53V20a6.991,6.991,0,0,0-12.594-4.189,8.985,8.985,0,0,0-16.812,0A6.991,6.991,0,0,0,11,20v1H8a1,1,0,0,0-.986.836l-5,30A1,1,0,0,0,3,53H14.464L14,57.906A1,1,0,0,0,15,59H49a1,1,0,0,0,1-1.094L49.536,53H61A1,1,0,0,0,61.763,52.647ZM41,20a5,5,0,0,1,10,0v1H41ZM25,20V19a7,7,0,0,1,14,0v2H35a1,1,0,0,0-1,1v3H30V22a1,1,0,0,0-1-1H25Zm14,3v2H36V23ZM25,23h3v2H25ZM13,20a5,5,0,0,1,10,0v1H13Zm1.651,31H4.181L8.847,23H11v2h2V23H23v2H18a1,1,0,0,0-1,.906ZM16.1,57,18.91,27H23v4h2V27H39v4h2V27h4.09L47.9,57Zm33.251-6L47,25.906A1,1,0,0,0,46,25H41V23H51v2h2V23h2.153l4.666,28Z" style="fill:url(#linear-gradient)" id="id_104"></path></svg>